<?xml version="1.0" encoding="utf-8"?>
<!-- Generator: Adobe Illustrator 26.5.0, SVG Export Plug-In . SVG Version: 6.00 Build 0)  -->
<svg version="1.1" id="Capa_1" xmlns="http://www.w3.org/2000/svg" xmlns:xlink="http://www.w3.org/1999/xlink" x="0px" y="0px"
	 viewBox="0 0 100 100" style="enable-background:new 0 0 100 100;" xml:space="preserve">
<style type="text/css">
	.st0{fill:none;stroke:#009EDD;stroke-width:2;stroke-miterlimit:10;}
	.st1{fill:#009EDD;}
</style>
<g>
	<ellipse class="st0" cx="57.3" cy="44.8" rx="4.7" ry="10.3"/>
	<path class="st0" d="M57.3,34.5h34.6c2.4,0,4.4,2,4.4,4.4v37.8c0,0-13.3,1.4-17.3,0s-16.9,0-16.9,0V44.8"/>
	<path class="st1" d="M58.5,68.5c-5.6,7.1-14.3,11.6-24,11.6c-16.9,0-30.7-13.8-30.7-30.7s13.8-30.7,30.7-30.7
		c10,0,18.8,4.8,24.5,12.2L53.7,31C48.9,26,42,22.8,34.5,22.8c-14.7,0-26.7,12-26.7,26.7s12,26.7,26.7,26.7c10.6,0,19.7-6.2,24-15.1
		V68.5z"/>
	<polygon class="st1" points="47.1,81.2 21.9,81.2 21.9,75.6 34.2,77.3 47.1,75.6 	"/>
	<polygon class="st1" points="51,59.8 7,59.8 7,55.8 50,55.8 	"/>
	<circle class="st1" cx="34.7" cy="47.5" r="2.7"/>
</g>
</svg>
