<?xml version="1.0" encoding="UTF-8"?>
<svg id="Capa_1" data-name="Capa 1" xmlns="http://www.w3.org/2000/svg" viewBox="0 0 100 100">
  <defs>
    <style>
      .cls-1 {
        fill: #e6e9f2;
        stroke-width: 0px;
      }
    </style>
  </defs>
  <path class="cls-1" d="m48.07,92.68h5.75l1.85-10.26c.21-1.15,1.08-2.06,2.22-2.32,3.14-.71,6.35-2.13,9.82-4.33.97-.62,2.22-.6,3.18.04l7.84,5.25,4.12-4.16-5.36-7.88c-.65-.96-.67-2.21-.05-3.19,1.9-2.98,2.86-6.49,3.61-9.83.25-1.12,1.15-1.99,2.28-2.21l9.35-1.83v-5.82l-9.35-1.82c-1.13-.23-2.02-1.09-2.28-2.22-.89-3.92-2.15-7.13-3.85-9.82-.62-.99-.6-2.25.07-3.22l5.44-7.84-4.03-4.06-7.8,5.33c-.96.65-2.22.67-3.2.06-3-1.91-6.48-2.86-9.8-3.61-1.13-.26-2-1.15-2.22-2.29l-1.81-9.34h-5.81l-1.83,9.35c-.22,1.13-1.09,2.02-2.22,2.28-3.92.89-7.13,2.15-9.82,3.85-.98.63-2.25.6-3.21-.06l-7.85-5.44-4.06,4.03,5.33,7.8c.65.96.68,2.22.06,3.2-1.8,2.83-3.75,6.21-4.56,9.8-.26,1.15-1.17,2.02-2.32,2.22l-10.25,1.84v5.74l10.26,1.84c1.15.21,2.06,1.08,2.32,2.22.71,3.14,2.13,6.35,4.33,9.82.62.98.6,2.22-.04,3.18l-5.25,7.84,4.15,4.12,7.89-5.35c.96-.65,2.22-.67,3.19-.05,2.66,1.69,6.18,3.73,9.83,4.56,1.14.26,2.01,1.16,2.22,2.32l1.86,10.26Zm8.18,5.82h-10.61c-1.4,0-2.61-1.01-2.86-2.39l-1.97-10.84c-3.02-.94-5.8-2.4-8.13-3.8l-8.3,5.64c-1.15.78-2.69.64-3.68-.34l-7.56-7.5c-.99-.98-1.15-2.52-.37-3.68l5.55-8.29c-1.62-2.78-2.81-5.46-3.6-8.12l-10.82-1.95c-1.39-.25-2.39-1.46-2.39-2.86v-10.61c0-1.41,1.01-2.62,2.4-2.86l10.83-1.95c.93-2.97,2.35-5.69,3.79-8.1l-5.63-8.24c-.79-1.16-.65-2.72.35-3.71l7.5-7.44c1-.99,2.56-1.13,3.71-.33l8.31,5.76c2.39-1.3,5.07-2.35,8.1-3.16l1.93-9.88c.27-1.37,1.47-2.35,2.86-2.35h10.61c1.39,0,2.59.99,2.86,2.35l1.91,9.85c2.69.67,5.45,1.55,8.09,2.95l8.29-5.66c1.16-.8,2.72-.64,3.71.35l7.44,7.5c.99.99,1.13,2.56.33,3.71l-5.76,8.3c1.3,2.39,2.35,5.07,3.16,8.1l9.87,1.93c1.37.27,2.35,1.47,2.35,2.86v10.61c0,1.39-.98,2.59-2.35,2.85l-9.86,1.94c-.68,2.71-1.56,5.48-2.96,8.13l5.67,8.35c.78,1.15.64,2.69-.34,3.68l-7.5,7.56c-.98.99-2.52,1.15-3.68.37l-8.29-5.55c-2.78,1.62-5.46,2.8-8.12,3.59l-1.95,10.82c-.25,1.39-1.45,2.39-2.86,2.39"/>
  <path class="cls-1" d="m50.91,34.8c-8.38,0-15.2,6.82-15.2,15.2s6.82,15.2,15.2,15.2,15.2-6.82,15.2-15.2-6.82-15.2-15.2-15.2m0,34.27c-10.52,0-19.08-8.56-19.08-19.08s8.56-19.08,19.08-19.08,19.08,8.56,19.08,19.08-8.56,19.08-19.08,19.08"/>
</svg>