<?xml version="1.0" encoding="UTF-8"?>
<svg id="Capa_1" data-name="Capa 1" xmlns="http://www.w3.org/2000/svg" viewBox="0 0 100 100">
  <defs>
    <style>
      .cls-1 {
        fill: #fff;
        stroke-width: 0px;
      }

      .cls-2 {
        opacity: .96;
      }
    </style>
  </defs>
  <g class="cls-2">
    <path class="cls-1" d="m94.21,98.38c-1.07,0-2.14-.41-2.95-1.22L2.79,8.67c-1.64-1.62-1.64-4.26,0-5.89,1.62-1.64,4.26-1.64,5.89,0l88.48,88.47c1.62,1.62,1.62,4.26,0,5.9-.81.81-1.88,1.22-2.95,1.22"/>
    <path class="cls-1" d="m5.73,98.38c-1.07,0-2.14-.41-2.95-1.22-1.62-1.64-1.62-4.28,0-5.9L91.27,2.78c1.62-1.62,4.26-1.62,5.89,0,1.64,1.64,1.64,4.28,0,5.9L8.68,97.17c-.81.81-1.88,1.22-2.95,1.22"/>
    <path class="cls-1" d="m94.21,9.9h-28.82c-2.3,0-4.17-1.87-4.17-4.17s1.87-4.18,4.17-4.18h28.82c2.3.01,4.17,1.88,4.17,4.18s-1.87,4.17-4.17,4.17"/>
    <path class="cls-1" d="m94.33,38.84c-2.3,0-4.17-1.87-4.17-4.17V5.85c0-2.3,1.87-4.17,4.17-4.17s4.17,1.87,4.17,4.17v28.82c0,2.3-1.87,4.17-4.17,4.17"/>
    <path class="cls-1" d="m94.27,98.32h0c-2.3,0-4.17-1.87-4.17-4.17v-28.82c0-2.3,1.87-4.17,4.17-4.17s4.17,1.87,4.17,4.17v28.82c0,2.3-1.87,4.17-4.17,4.17"/>
    <path class="cls-1" d="m65.33,98.44c-2.3,0-4.17-1.87-4.17-4.17s1.87-4.17,4.17-4.17h28.82c2.3-.01,4.17,1.85,4.17,4.17s-1.87,4.17-4.17,4.17h-28.82Z"/>
    <path class="cls-1" d="m5.67,38.78c-2.3,0-4.17-1.87-4.17-4.17V5.79C1.5,3.49,3.37,1.62,5.67,1.62s4.17,1.87,4.17,4.17v28.82c0,2.3-1.87,4.17-4.17,4.17"/>
    <path class="cls-1" d="m5.79,9.84c-2.3,0-4.17-1.87-4.17-4.17S3.49,1.51,5.79,1.51h28.82c2.3-.01,4.17,1.85,4.17,4.15s-1.87,4.18-4.17,4.18H5.79Z"/>
    <path class="cls-1" d="m34.67,98.51H5.85c-2.3,0-4.17-1.87-4.17-4.17s1.87-4.17,4.17-4.17h28.82c2.3,0,4.17,1.85,4.17,4.17s-1.87,4.17-4.17,4.17"/>
    <path class="cls-1" d="m5.73,98.38c-2.3,0-4.17-1.87-4.17-4.17v-28.82c0-2.3,1.85-4.17,4.17-4.17s4.17,1.87,4.17,4.17v28.82c0,2.3-1.87,4.17-4.17,4.17"/>
  </g>
</svg>