<?xml version="1.0" encoding="UTF-8"?>
<svg id="Capa_1" data-name="Capa 1" xmlns="http://www.w3.org/2000/svg" viewBox="0 0 100 100">
  <defs>
    <style>
      .cls-1 {
        fill: #fff;
        stroke-width: 0px;
      }
    </style>
  </defs>
  <path class="cls-1" d="m38.73,83.7c-2.43,0-4.41,1.98-4.41,4.41s1.98,4.41,4.41,4.41,4.41-1.98,4.41-4.41-1.98-4.41-4.41-4.41m0,14.64c-5.64,0-10.23-4.59-10.23-10.23s4.59-10.23,10.23-10.23,10.23,4.59,10.23,10.23-4.59,10.23-10.23,10.23"/>
  <path class="cls-1" d="m76.61,83.7c-2.43,0-4.41,1.98-4.41,4.41s1.98,4.41,4.41,4.41,4.41-1.98,4.41-4.41-1.98-4.41-4.41-4.41m0,14.64c-5.64,0-10.23-4.59-10.23-10.23s4.59-10.23,10.23-10.23,10.23,4.59,10.23,10.23-4.59,10.23-10.23,10.23"/>
  <path class="cls-1" d="m86.99,59.9H26.61c-1.27,0-2.39-.82-2.77-2.02L11.11,18.05h-6.7c-1.61,0-2.91-1.31-2.91-2.91s1.3-2.91,2.91-2.91h8.82c1.27,0,2.39.82,2.77,2.02l12.74,39.83h56.04l6.87-23.98h-6.77c-1.61,0-2.91-1.31-2.91-2.92s1.31-2.91,2.91-2.91h10.69c.93,0,1.79.44,2.34,1.18.55.74.72,1.7.45,2.59l-2.25,7.42-6.32,22.34c-.36,1.25-1.5,2.12-2.81,2.12"/>
  <path class="cls-1" d="m26.05,60.23c-1.25,0-2.4-.81-2.79-2.07L10.45,15.98c-.47-1.54.4-3.17,1.94-3.64,1.54-.47,3.17.4,3.63,1.94l12.82,42.18c.47,1.54-.4,3.17-1.94,3.64-.28.09-.57.13-.85.13"/>
  <path class="cls-1" d="m83.93,73.51H30.33c-1.26,0-2.38-.81-2.77-2.02l-4.28-13.28c-.49-1.53.35-3.17,1.88-3.66,1.54-.49,3.18.35,3.67,1.88l3.63,11.26h51.47c1.61,0,2.91,1.31,2.91,2.91s-1.31,2.91-2.91,2.91"/>
  <path class="cls-1" d="m53.96,47.58c-.5,0-.99-.19-1.37-.57-.76-.75-.77-1.99-.01-2.75l18.22-18.32c.76-.76,1.99-.76,2.75,0,.76.76.76,1.99,0,2.74l-18.22,18.33c-.38.38-.88.57-1.37.57"/>
  <path class="cls-1" d="m53.96,47.58c-.5,0-1-.19-1.38-.57l-18.22-18.33c-.76-.76-.75-1.99,0-2.74.76-.76,1.99-.76,2.75,0l18.22,18.32c.76.76.76,2,0,2.75-.38.38-.87.57-1.37.57"/>
  <path class="cls-1" d="m53.96,44.4c-1.07,0-1.94-.87-1.94-1.94V3.6c0-1.07.87-1.94,1.94-1.94s1.94.87,1.94,1.94v38.86c0,1.07-.87,1.94-1.94,1.94"/>
</svg>