<?xml version="1.0" encoding="UTF-8"?>
<svg id="Capa_1" data-name="Capa 1" xmlns="http://www.w3.org/2000/svg" viewBox="0 0 100 100">
  <defs>
    <style>
      .cls-1 {
        fill: #fff;
      }
    </style>
  </defs>
  <rect class="cls-1" x="9.24" y="12.63" width="22.09" height="13.59" rx="4.17" ry="4.17"/>
  <rect class="cls-1" x="68.68" y="12.63" width="22.09" height="13.59" rx="4.17" ry="4.17"/>
  <rect class="cls-1" x="38.11" y="12.63" width="23.78" height="13.59" rx="4.17" ry="4.17"/>
  <rect class="cls-1" x="22.82" y="33.01" width="23.78" height="13.59" rx="4.17" ry="4.17"/>
  <rect class="cls-1" x="53.39" y="33.01" width="23.78" height="13.59" rx="4.17" ry="4.17"/>
  <rect class="cls-1" x="9.24" y="53.39" width="22.09" height="13.59" rx="4.17" ry="4.17"/>
  <rect class="cls-1" x="68.68" y="53.39" width="22.09" height="13.59" rx="4.17" ry="4.17"/>
  <rect class="cls-1" x="38.11" y="53.39" width="23.78" height="13.59" rx="4.17" ry="4.17"/>
  <rect class="cls-1" x="22.82" y="73.78" width="23.78" height="13.59" rx="4.17" ry="4.17"/>
  <rect class="cls-1" x="53.39" y="73.78" width="23.78" height="13.59" rx="4.17" ry="4.17"/>
</svg>