<?xml version="1.0" encoding="UTF-8"?>
<svg id="Capa_1" data-name="Capa 1" xmlns="http://www.w3.org/2000/svg" viewBox="0 0 100 100">
  <defs>
    <style>
      .cls-1 {
        fill: #09f;
        stroke-width: 0px;
      }
    </style>
  </defs>
  <path class="cls-1" d="M78.05,38.53h-1.07l1.83-14.18-1.47.26c-.17.03-17.59,3.07-26.98,1.25-14.76-2.86-26.5-1.33-26.99-1.26l-1.06.14,1.52,13.79h-1.88c-4.02,0-7.28,3.27-7.28,7.28v30.06h70.66v-30.06c0-4.02-3.27-7.28-7.28-7.28ZM24.73,26.66c3.21-.3,13.31-.95,25.22,1.36,8.25,1.6,21.82-.3,26.31-1l-1.48,11.52H26.04l-1.31-11.87ZM81.82,72.36H18.18v-26.55c0-2.08,1.69-3.77,3.77-3.77h56.1c2.08,0,3.77,1.69,3.77,3.77v26.55Z"/>
</svg>