<?xml version="1.0" encoding="UTF-8"?>
<svg id="Capa_1" data-name="Capa 1" xmlns="http://www.w3.org/2000/svg" xmlns:xlink="http://www.w3.org/1999/xlink" viewBox="0 0 100 100">
  <defs>
    <style>
      .cls-1 {
        fill: none;
        filter: url(#drop-shadow-1);
        stroke: #fff;
        stroke-miterlimit: 10;
        stroke-width: 2px;
      }

      .cls-2 {
        fill: #fff;
        stroke-width: 0px;
      }
    </style>
    <filter id="drop-shadow-1" filterUnits="userSpaceOnUse">
      <feOffset dx="0" dy="1"/>
      <feGaussianBlur result="blur" stdDeviation="2"/>
      <feFlood flood-color="#245792" flood-opacity=".6"/>
      <feComposite in2="blur" operator="in"/>
      <feComposite in="SourceGraphic"/>
    </filter>
  </defs>
  <circle class="cls-1" cx="50" cy="50" r="48.5"/>
  <g>
    <path class="cls-2" d="m49.82,20.68c-12.15,0-22.03,9.88-22.03,22.03,0,15.72,17.07,32.26,22.03,36.72,4.94-4.5,22.03-21.16,22.03-36.72,0-12.14-9.88-22.03-22.03-22.03m0,64.21l-1.33-1.1c-1.02-.84-24.85-20.85-24.85-41.08,0-14.43,11.74-26.17,26.17-26.17s26.17,11.74,26.17,26.17c0,20.05-23.83,40.22-24.84,41.07l-1.33,1.11Z"/>
    <path class="cls-2" d="m49.82,32.47c-5.65,0-10.24,4.6-10.24,10.24s4.59,10.24,10.24,10.24,10.24-4.6,10.24-10.24-4.59-10.24-10.24-10.24m0,23.24c-7.17,0-13.01-5.83-13.01-13s5.83-13.01,13.01-13.01,13,5.83,13,13.01-5.83,13-13,13"/>
  </g>
</svg>