<?xml version="1.0" encoding="UTF-8"?>
<svg id="Capa_1" data-name="Capa 1" xmlns="http://www.w3.org/2000/svg" viewBox="0 0 100 100">
  <defs>
    <style>
      .cls-1 {
        fill: #09f;
        stroke-width: 0px;
      }
    </style>
  </defs>
  <path class="cls-1" d="m87.65,80.97c-2.79,0-5.5-.16-7.35-.64-3.57-.93-14.54-.29-18.47.04l-1.45.12v-35.53h2.69v32.62c3.82-.27,14.01-.86,17.91.15,3.96,1.03,12.99.37,16.29.08-.14-6.03-.74-31.97-.74-36.68,0-4.25-.6-5.61-2.49-5.61h-37.29v-2.69h37.29c5.17,0,5.17,5.6,5.17,8.3,0,5.28.76,37.55.77,37.87l.03,1.24-1.23.13c-.35.04-5.86.6-11.12.6Z"/>
  <path class="cls-1" d="m56.74,57.09c-3.6,0-6.32-5.21-6.32-12.13s2.72-12.13,6.32-12.13,6.32,5.21,6.32,12.13-2.72,12.13-6.32,12.13Zm0-21.58c-1.48,0-3.63,3.68-3.63,9.45s2.15,9.44,3.63,9.44,3.63-3.68,3.63-9.44-2.15-9.45-3.63-9.45Z"/>
  <path class="cls-1" d="m57.97,70.04c-5.95,7.56-15.17,12.42-25.51,12.42C14.56,82.46,0,67.9,0,50S14.56,17.54,32.46,17.54c10.51,0,19.87,5.02,25.8,12.79h-5.67c-5.12-5.24-12.25-8.49-20.13-8.49-15.53,0-28.16,12.63-28.16,28.16s12.63,28.16,28.16,28.16c11.17,0,20.85-6.54,25.4-16l.12,7.88Z"/>
  <polygon class="cls-1" points="49.93 60.66 3.52 60.66 3.52 56.37 48.86 56.37 49.93 60.66"/>
  <circle class="cls-1" cx="32.62" cy="48.1" r="2.76"/>
  <rect class="cls-1" x="15.93" y="78.16" width="26.8" height="4.3"/>
</svg>